{
    "asset" : {
        "generator" : "Khronos glTF Blender I/O v1.7.33",
        "version" : "2.0"
    },
    "scene" : 0,
    "scenes" : [
        {
            "name" : "Scene",
            "nodes" : [
                0,
                1
            ]
        }
    ],
    "nodes" : [
        {
            "mesh" : 0,
            "name" : "Body"
        },
        {
            "mesh" : 1,
            "name" : "Gun"
        }
    ],
    "materials" : [
        {
            "doubleSided" : true,
            "name" : "Robot Base Material",
            "pbrMetallicRoughness" : {
                "baseColorFactor" : [
                    0.11443541198968887,
                    0.008568131364881992,
                    0.016807375475764275,
                    1
                ],
                "metallicFactor" : 0,
                "roughnessFactor" : 0.29527556896209717
            }
        },
        {
            "doubleSided" : true,
            "name" : "Material.001",
            "pbrMetallicRoughness" : {
                "baseColorFactor" : [
                    0.04954914376139641,
                    0.004893446806818247,
                    0.008664111606776714,
                    1
                ],
                "metallicFactor" : 0,
                "roughnessFactor" : 0.9094488620758057
            }
        },
        {
            "doubleSided" : true,
            "name" : "Material.002",
            "pbrMetallicRoughness" : {
                "baseColorFactor" : [
                    0.0010314567480236292,
                    0.0010314567480236292,
                    0.0010314567480236292,
                    1
                ],
                "roughnessFactor" : 0
            }
        },
        {
            "doubleSided" : true,
            "name" : "Gunmetal",
            "pbrMetallicRoughness" : {
                "baseColorFactor" : [
                    0.5814631581306458,
                    0.5814631581306458,
                    0.5814631581306458,
                    1
                ],
                "metallicFactor" : 0.800000011920929,
                "roughnessFactor" : 0.12992125749588013
            }
        }
    ],
    "meshes" : [
        {
            "name" : "Cylinder.001",
            "primitives" : [
                {
                    "attributes" : {
                        "POSITION" : 0,
                        "NORMAL" : 1,
                        "TEXCOORD_0" : 2
                    },
                    "indices" : 3,
                    "material" : 0
                },
                {
                    "attributes" : {
                        "POSITION" : 4,
                        "NORMAL" : 5,
                        "TEXCOORD_0" : 6
                    },
                    "indices" : 7,
                    "material" : 1
                },
                {
                    "attributes" : {
                        "POSITION" : 8,
                        "NORMAL" : 9,
                        "TEXCOORD_0" : 10
                    },
                    "indices" : 11,
                    "material" : 2
                }
            ]
        },
        {
            "name" : "Cylinder.002",
            "primitives" : [
                {
                    "attributes" : {
                        "POSITION" : 12,
                        "NORMAL" : 13,
                        "TEXCOORD_0" : 14
                    },
                    "indices" : 15,
                    "material" : 3
                }
            ]
        }
    ],
    "accessors" : [
        {
            "bufferView" : 0,
            "componentType" : 5126,
            "count" : 581,
            "max" : [
                0.5217088460922241,
                1.5995004177093506,
                0.5217089056968689
            ],
            "min" : [
                -0.5217088460922241,
                0.0770835280418396,
                -0.5217088460922241
            ],
            "type" : "VEC3"
        },
        {
            "bufferView" : 1,
            "componentType" : 5126,
            "count" : 581,
            "type" : "VEC3"
        },
        {
            "bufferView" : 2,
            "componentType" : 5126,
            "count" : 581,
            "type" : "VEC2"
        },
        {
            "bufferView" : 3,
            "componentType" : 5123,
            "count" : 879,
            "type" : "SCALAR"
        },
        {
            "bufferView" : 4,
            "componentType" : 5126,
            "count" : 208,
            "max" : [
                0.5775742530822754,
                0.7504580616950989,
                0.5775742530822754
            ],
            "min" : [
                -0.5775744915008545,
                -0.006787359714508057,
                -0.5775744915008545
            ],
            "type" : "VEC3"
        },
        {
            "bufferView" : 5,
            "componentType" : 5126,
            "count" : 208,
            "type" : "VEC3"
        },
        {
            "bufferView" : 6,
            "componentType" : 5126,
            "count" : 208,
            "type" : "VEC2"
        },
        {
            "bufferView" : 7,
            "componentType" : 5123,
            "count" : 330,
            "type" : "SCALAR"
        },
        {
            "bufferView" : 8,
            "componentType" : 5126,
            "count" : 251,
            "max" : [
                0.29143765568733215,
                1.5995004177093506,
                0.29143771529197693
            ],
            "min" : [
                -0.29143765568733215,
                1.3603236675262451,
                -0.2914375960826874
            ],
            "type" : "VEC3"
        },
        {
            "bufferView" : 9,
            "componentType" : 5126,
            "count" : 251,
            "type" : "VEC3"
        },
        {
            "bufferView" : 10,
            "componentType" : 5126,
            "count" : 251,
            "type" : "VEC2"
        },
        {
            "bufferView" : 11,
            "componentType" : 5123,
            "count" : 363,
            "type" : "SCALAR"
        },
        {
            "bufferView" : 12,
            "componentType" : 5126,
            "count" : 166,
            "max" : [
                -0.17124825716018677,
                1.0677082538604736,
                0.2148776799440384
            ],
            "min" : [
                -0.5155782699584961,
                0.9040843844413757,
                0.051253773272037506
            ],
            "type" : "VEC3"
        },
        {
            "bufferView" : 13,
            "componentType" : 5126,
            "count" : 166,
            "type" : "VEC3"
        },
        {
            "bufferView" : 14,
            "componentType" : 5126,
            "count" : 166,
            "type" : "VEC2"
        },
        {
            "bufferView" : 15,
            "componentType" : 5123,
            "count" : 756,
            "type" : "SCALAR"
        }
    ],
    "bufferViews" : [
        {
            "buffer" : 0,
            "byteLength" : 6972,
            "byteOffset" : 0
        },
        {
            "buffer" : 0,
            "byteLength" : 6972,
            "byteOffset" : 6972
        },
        {
            "buffer" : 0,
            "byteLength" : 4648,
            "byteOffset" : 13944
        },
        {
            "buffer" : 0,
            "byteLength" : 1758,
            "byteOffset" : 18592
        },
        {
            "buffer" : 0,
            "byteLength" : 2496,
            "byteOffset" : 20352
        },
        {
            "buffer" : 0,
            "byteLength" : 2496,
            "byteOffset" : 22848
        },
        {
            "buffer" : 0,
            "byteLength" : 1664,
            "byteOffset" : 25344
        },
        {
            "buffer" : 0,
            "byteLength" : 660,
            "byteOffset" : 27008
        },
        {
            "buffer" : 0,
            "byteLength" : 3012,
            "byteOffset" : 27668
        },
        {
            "buffer" : 0,
            "byteLength" : 3012,
            "byteOffset" : 30680
        },
        {
            "buffer" : 0,
            "byteLength" : 2008,
            "byteOffset" : 33692
        },
        {
            "buffer" : 0,
            "byteLength" : 726,
            "byteOffset" : 35700
        },
        {
            "buffer" : 0,
            "byteLength" : 1992,
            "byteOffset" : 36428
        },
        {
            "buffer" : 0,
            "byteLength" : 1992,
            "byteOffset" : 38420
        },
        {
            "buffer" : 0,
            "byteLength" : 1328,
            "byteOffset" : 40412
        },
        {
            "buffer" : 0,
            "byteLength" : 1512,
            "byteOffset" : 41740
        }
    ],
    "buffers" : [
        {
            "byteLength" : 43252,
            "uri" : "data:application/octet-stream;base64,"
        }
    ]
}
