{
    "asset" : {
        "generator" : "Khronos glTF Blender I/O v1.7.33",
        "version" : "2.0"
    },
    "scene" : 3,
    "scenes" : [
        {
            "name" : "Chipped Wall",
            "nodes" : [
                0
            ]
        },
        {
            "name" : "Long Wall",
            "nodes" : [
                1
            ]
        },
        {
            "name" : "Post",
            "nodes" : [
                2
            ]
        },
        {
            "name" : "Wall",
            "nodes" : [
                3
            ]
        }
    ],
    "nodes" : [
        {
            "mesh" : 0,
            "name" : "Chipped Wall.002",
            "scale" : [
                1,
                1,
                0.9503803253173828
            ]
        },
        {
            "mesh" : 1,
            "name" : "Long Wall.001",
            "scale" : [
                1,
                1,
                0.9441578388214111
            ]
        },
        {
            "mesh" : 2,
            "name" : "Post.003"
        },
        {
            "mesh" : 3,
            "name" : "Wall",
            "scale" : [
                1,
                1,
                0.9503803253173828
            ]
        }
    ],
    "meshes" : [
        {
            "name" : "Cube.012",
            "primitives" : [
                {
                    "attributes" : {
                        "POSITION" : 0,
                        "NORMAL" : 1,
                        "TEXCOORD_0" : 2
                    },
                    "indices" : 3
                }
            ]
        },
        {
            "name" : "Cube.006",
            "primitives" : [
                {
                    "attributes" : {
                        "POSITION" : 4,
                        "NORMAL" : 5,
                        "TEXCOORD_0" : 6
                    },
                    "indices" : 7
                }
            ]
        },
        {
            "name" : "Cube.013",
            "primitives" : [
                {
                    "attributes" : {
                        "POSITION" : 8,
                        "NORMAL" : 9,
                        "TEXCOORD_0" : 10
                    },
                    "indices" : 11
                }
            ]
        },
        {
            "name" : "Cube.003",
            "primitives" : [
                {
                    "attributes" : {
                        "POSITION" : 12,
                        "NORMAL" : 13,
                        "TEXCOORD_0" : 14
                    },
                    "indices" : 15
                }
            ]
        }
    ],
    "accessors" : [
        {
            "bufferView" : 0,
            "componentType" : 5126,
            "count" : 456,
            "max" : [
                2,
                3,
                0.5227647423744202
            ],
            "min" : [
                -2,
                -3,
                -0.5294455885887146
            ],
            "type" : "VEC3"
        },
        {
            "bufferView" : 1,
            "componentType" : 5126,
            "count" : 456,
            "type" : "VEC3"
        },
        {
            "bufferView" : 2,
            "componentType" : 5126,
            "count" : 456,
            "type" : "VEC2"
        },
        {
            "bufferView" : 3,
            "componentType" : 5123,
            "count" : 744,
            "type" : "SCALAR"
        },
        {
            "bufferView" : 4,
            "componentType" : 5126,
            "count" : 416,
            "max" : [
                5.0167646408081055,
                3,
                0.5347663164138794
            ],
            "min" : [
                -4.983235836029053,
                -3,
                -0.5243786573410034
            ],
            "type" : "VEC3"
        },
        {
            "bufferView" : 5,
            "componentType" : 5126,
            "count" : 416,
            "type" : "VEC3"
        },
        {
            "bufferView" : 6,
            "componentType" : 5126,
            "count" : 416,
            "type" : "VEC2"
        },
        {
            "bufferView" : 7,
            "componentType" : 5123,
            "count" : 672,
            "type" : "SCALAR"
        },
        {
            "bufferView" : 8,
            "componentType" : 5126,
            "count" : 96,
            "max" : [
                0.5,
                3,
                0.5
            ],
            "min" : [
                -0.5,
                -3,
                -0.5
            ],
            "type" : "VEC3"
        },
        {
            "bufferView" : 9,
            "componentType" : 5126,
            "count" : 96,
            "type" : "VEC3"
        },
        {
            "bufferView" : 10,
            "componentType" : 5126,
            "count" : 96,
            "type" : "VEC2"
        },
        {
            "bufferView" : 11,
            "componentType" : 5123,
            "count" : 132,
            "type" : "SCALAR"
        },
        {
            "bufferView" : 12,
            "componentType" : 5126,
            "count" : 416,
            "max" : [
                2,
                3,
                0.5227647423744202
            ],
            "min" : [
                -2,
                -3,
                -0.5294455885887146
            ],
            "type" : "VEC3"
        },
        {
            "bufferView" : 13,
            "componentType" : 5126,
            "count" : 416,
            "type" : "VEC3"
        },
        {
            "bufferView" : 14,
            "componentType" : 5126,
            "count" : 416,
            "type" : "VEC2"
        },
        {
            "bufferView" : 15,
            "componentType" : 5123,
            "count" : 672,
            "type" : "SCALAR"
        }
    ],
    "bufferViews" : [
        {
            "buffer" : 0,
            "byteLength" : 5472,
            "byteOffset" : 0
        },
        {
            "buffer" : 0,
            "byteLength" : 5472,
            "byteOffset" : 5472
        },
        {
            "buffer" : 0,
            "byteLength" : 3648,
            "byteOffset" : 10944
        },
        {
            "buffer" : 0,
            "byteLength" : 1488,
            "byteOffset" : 14592
        },
        {
            "buffer" : 0,
            "byteLength" : 4992,
            "byteOffset" : 16080
        },
        {
            "buffer" : 0,
            "byteLength" : 4992,
            "byteOffset" : 21072
        },
        {
            "buffer" : 0,
            "byteLength" : 3328,
            "byteOffset" : 26064
        },
        {
            "buffer" : 0,
            "byteLength" : 1344,
            "byteOffset" : 29392
        },
        {
            "buffer" : 0,
            "byteLength" : 1152,
            "byteOffset" : 30736
        },
        {
            "buffer" : 0,
            "byteLength" : 1152,
            "byteOffset" : 31888
        },
        {
            "buffer" : 0,
            "byteLength" : 768,
            "byteOffset" : 33040
        },
        {
            "buffer" : 0,
            "byteLength" : 264,
            "byteOffset" : 33808
        },
        {
            "buffer" : 0,
            "byteLength" : 4992,
            "byteOffset" : 34072
        },
        {
            "buffer" : 0,
            "byteLength" : 4992,
            "byteOffset" : 39064
        },
        {
            "buffer" : 0,
            "byteLength" : 3328,
            "byteOffset" : 44056
        },
        {
            "buffer" : 0,
            "byteLength" : 1344,
            "byteOffset" : 47384
        }
    ],
    "buffers" : [
        {
            "byteLength" : 48728,
            "uri" : "data:application/octet-stream;base64,"
        }
    ]
}
