{
    "asset" : {
        "generator" : "Khronos glTF Blender I/O v1.7.33",
        "version" : "2.0"
    },
    "scene" : 3,
    "scenes" : [
        {
            "name" : "Chipped Wall",
            "nodes" : [
                0
            ]
        },
        {
            "name" : "Long Wall",
            "nodes" : [
                1
            ]
        },
        {
            "name" : "Post",
            "nodes" : [
                2
            ]
        },
        {
            "name" : "Wall",
            "nodes" : [
                3
            ]
        }
    ],
    "nodes" : [
        {
            "mesh" : 0,
            "name" : "Chipped Wall.002",
            "scale" : [
                2,
                3,
                0.5
            ],
            "translation" : [
                0,
                3,
                0
            ]
        },
        {
            "mesh" : 1,
            "name" : "Long Wall.001",
            "scale" : [
                5,
                3,
                0.5
            ],
            "translation" : [
                0,
                -4.611209869384766,
                0
            ]
        },
        {
            "mesh" : 2,
            "name" : "Post.003",
            "scale" : [
                0.5,
                3,
                0.5
            ],
            "translation" : [
                0,
                3,
                0
            ]
        },
        {
            "mesh" : 3,
            "name" : "Wall",
            "scale" : [
                2,
                3,
                0.5
            ],
            "translation" : [
                0,
                3,
                0
            ]
        }
    ],
    "meshes" : [
        {
            "name" : "Cube.012",
            "primitives" : [
                {
                    "attributes" : {
                        "POSITION" : 0,
                        "NORMAL" : 1,
                        "TEXCOORD_0" : 2
                    },
                    "indices" : 3
                }
            ]
        },
        {
            "name" : "Cube.006",
            "primitives" : [
                {
                    "attributes" : {
                        "POSITION" : 4,
                        "NORMAL" : 5,
                        "TEXCOORD_0" : 6
                    },
                    "indices" : 7
                }
            ]
        },
        {
            "name" : "Cube.013",
            "primitives" : [
                {
                    "attributes" : {
                        "POSITION" : 8,
                        "NORMAL" : 9,
                        "TEXCOORD_0" : 10
                    },
                    "indices" : 11
                }
            ]
        },
        {
            "name" : "Cube.003",
            "primitives" : [
                {
                    "attributes" : {
                        "POSITION" : 12,
                        "NORMAL" : 13,
                        "TEXCOORD_0" : 14
                    },
                    "indices" : 15
                }
            ]
        }
    ],
    "accessors" : [
        {
            "bufferView" : 0,
            "componentType" : 5126,
            "count" : 456,
            "max" : [
                1,
                1,
                1.0455294847488403
            ],
            "min" : [
                -1,
                -1,
                -1.0588911771774292
            ],
            "type" : "VEC3"
        },
        {
            "bufferView" : 1,
            "componentType" : 5126,
            "count" : 456,
            "type" : "VEC3"
        },
        {
            "bufferView" : 2,
            "componentType" : 5126,
            "count" : 456,
            "type" : "VEC2"
        },
        {
            "bufferView" : 3,
            "componentType" : 5123,
            "count" : 744,
            "type" : "SCALAR"
        },
        {
            "bufferView" : 4,
            "componentType" : 5126,
            "count" : 416,
            "max" : [
                1.0033528804779053,
                1,
                1.0695326328277588
            ],
            "min" : [
                -0.9966471791267395,
                -1,
                -1.0487573146820068
            ],
            "type" : "VEC3"
        },
        {
            "bufferView" : 5,
            "componentType" : 5126,
            "count" : 416,
            "type" : "VEC3"
        },
        {
            "bufferView" : 6,
            "componentType" : 5126,
            "count" : 416,
            "type" : "VEC2"
        },
        {
            "bufferView" : 7,
            "componentType" : 5123,
            "count" : 672,
            "type" : "SCALAR"
        },
        {
            "bufferView" : 8,
            "componentType" : 5126,
            "count" : 96,
            "max" : [
                1,
                1,
                1
            ],
            "min" : [
                -1,
                -1,
                -1
            ],
            "type" : "VEC3"
        },
        {
            "bufferView" : 9,
            "componentType" : 5126,
            "count" : 96,
            "type" : "VEC3"
        },
        {
            "bufferView" : 10,
            "componentType" : 5126,
            "count" : 96,
            "type" : "VEC2"
        },
        {
            "bufferView" : 11,
            "componentType" : 5123,
            "count" : 132,
            "type" : "SCALAR"
        },
        {
            "bufferView" : 12,
            "componentType" : 5126,
            "count" : 416,
            "max" : [
                1,
                1,
                1.0455294847488403
            ],
            "min" : [
                -1,
                -1,
                -1.0588911771774292
            ],
            "type" : "VEC3"
        },
        {
            "bufferView" : 13,
            "componentType" : 5126,
            "count" : 416,
            "type" : "VEC3"
        },
        {
            "bufferView" : 14,
            "componentType" : 5126,
            "count" : 416,
            "type" : "VEC2"
        },
        {
            "bufferView" : 15,
            "componentType" : 5123,
            "count" : 672,
            "type" : "SCALAR"
        }
    ],
    "bufferViews" : [
        {
            "buffer" : 0,
            "byteLength" : 5472,
            "byteOffset" : 0
        },
        {
            "buffer" : 0,
            "byteLength" : 5472,
            "byteOffset" : 5472
        },
        {
            "buffer" : 0,
            "byteLength" : 3648,
            "byteOffset" : 10944
        },
        {
            "buffer" : 0,
            "byteLength" : 1488,
            "byteOffset" : 14592
        },
        {
            "buffer" : 0,
            "byteLength" : 4992,
            "byteOffset" : 16080
        },
        {
            "buffer" : 0,
            "byteLength" : 4992,
            "byteOffset" : 21072
        },
        {
            "buffer" : 0,
            "byteLength" : 3328,
            "byteOffset" : 26064
        },
        {
            "buffer" : 0,
            "byteLength" : 1344,
            "byteOffset" : 29392
        },
        {
            "buffer" : 0,
            "byteLength" : 1152,
            "byteOffset" : 30736
        },
        {
            "buffer" : 0,
            "byteLength" : 1152,
            "byteOffset" : 31888
        },
        {
            "buffer" : 0,
            "byteLength" : 768,
            "byteOffset" : 33040
        },
        {
            "buffer" : 0,
            "byteLength" : 264,
            "byteOffset" : 33808
        },
        {
            "buffer" : 0,
            "byteLength" : 4992,
            "byteOffset" : 34072
        },
        {
            "buffer" : 0,
            "byteLength" : 4992,
            "byteOffset" : 39064
        },
        {
            "buffer" : 0,
            "byteLength" : 3328,
            "byteOffset" : 44056
        },
        {
            "buffer" : 0,
            "byteLength" : 1344,
            "byteOffset" : 47384
        }
    ],
    "buffers" : [
        {
            "byteLength" : 48728,
            "uri" : "data:application/octet-stream;base64,"
        }
    ]
}
